<svg width="607" height="174" viewBox="0 0 607 174" fill="none" xmlns="http://www.w3.org/2000/svg">
<path d="M599.897 101.786C600.922 101.053 600.641 99.4593 599.428 99.1209L506.396 73.1828L488.133 138.685L581.07 164.596C582.292 164.937 583.359 163.701 582.844 162.542L567.956 129.048C567.088 127.096 567.713 124.803 569.45 123.56L599.897 101.786Z" fill="#AA19DD" stroke="black" stroke-width="3"/>
<path d="M6.62099 96.4508C5.6599 95.6253 6.09187 94.0537 7.3399 93.8354L104.487 76.8404L116.205 143.823L19.1574 160.801C17.901 161.021 16.961 159.671 17.6024 158.569L36.1564 126.675C37.2475 124.799 36.8448 122.412 35.1989 120.998L6.62099 96.4508Z" fill="#AA19DD" stroke="black" stroke-width="3"/>
<path d="M116.518 142.664L55.8928 123.577L68.3524 68.7442L109.193 95.1716L116.518 142.664Z" fill="#D9D9D9" stroke="black" stroke-width="3"/>
<path d="M496.735 104.372L522.159 87.4153L549.734 120.629L487.443 136.911L496.735 104.372Z" fill="#D9D9D9" stroke="black" stroke-width="3"/>
<path d="M231.272 86.4206L231.022 84.9416L231.012 84.9433L231.002 84.9451L164.614 97.0717L164.57 97.0798L164.526 97.0904L57.5989 123.289C53.5284 124.287 49.5919 121.228 49.5523 117.037L48.9356 51.649C48.8929 47.1237 52.0484 43.1965 56.4767 42.2635L164.386 19.5285L230.734 9.91107C241.213 8.63837 249.961 8.01011 258.39 7.50638C284.902 5.92193 311.567 5.65043 338.099 6.78718C346.128 7.13115 354.548 7.59914 364.859 8.64598L430.38 17.02L542.145 37.7242C546.614 38.5522 549.871 42.4303 549.914 46.9757L550.59 118.649C550.599 119.612 549.711 120.334 548.77 120.128L431.691 94.5684L431.654 94.5603L431.617 94.5541L366.011 83.6724L365.999 83.6704L365.987 83.6686L365.97 83.7838C365.987 83.6685 365.987 83.6685 365.987 83.6685L365.985 83.6683L365.979 83.6674L365.956 83.664L365.866 83.6507C365.787 83.6389 365.669 83.6216 365.514 83.5991C365.384 83.5801 365.228 83.5574 365.047 83.5313C364.798 83.4953 364.502 83.4527 364.16 83.4042C362.982 83.2365 361.269 82.9975 359.133 82.7115C354.859 82.1397 348.885 81.3802 342.082 80.6289C328.491 79.1284 311.527 77.6539 298.192 77.7891C284.955 77.9234 268.147 79.7164 254.689 81.4674C247.951 82.344 242.036 83.2121 237.806 83.8612C235.691 84.1857 233.996 84.4556 232.83 84.6444C232.247 84.7388 231.795 84.813 231.49 84.8636C231.337 84.8889 231.22 84.9084 231.142 84.9215L231.053 84.9364L231.03 84.9402L231.024 84.9412L231.022 84.9415C231.022 84.9415 231.022 84.9416 231.272 86.4206Z" fill="#C95EEF" stroke="black" stroke-width="3"/>
<line x1="50.3768" y1="65.1373" x2="66.3572" y2="62.9865" stroke="black" stroke-width="3"/>
<line x1="49.4501" y1="72.1455" x2="74.4207" y2="68.9099" stroke="black" stroke-width="3"/>
<line x1="524.241" y1="103.688" x2="549.288" y2="108.452" stroke="black" stroke-width="3"/>
<path d="M177.551 47.8236C179.875 47.3387 182.217 47.9259 184.579 49.585C186.968 51.2387 188.448 53.436 189.02 56.177C189.586 58.8918 189.119 61.4819 187.617 63.9473C186.111 66.3865 184.248 67.8377 182.029 68.3007C179.81 68.7637 178.1 68.4668 176.899 67.4099C176.957 68.7326 175.968 69.6064 173.932 70.0313C172.287 70.3745 171.208 70.2318 170.696 69.6033C170.431 69.2498 170.243 68.935 170.131 68.6587C170.04 68.3509 169.931 67.8968 169.806 67.2964L164.928 43.92C164.802 43.3196 164.723 42.8731 164.689 42.5805C164.676 42.2563 164.723 41.8925 164.829 41.4889C165.047 40.7078 165.992 40.1429 167.663 39.7943C169.307 39.4511 170.373 39.5965 170.859 40.2305C171.15 40.5785 171.341 40.9064 171.432 41.2142C171.544 41.4905 171.663 41.9288 171.788 42.5292L173.488 50.6737C174.265 49.1767 175.62 48.2267 177.551 47.8236ZM176.745 61.1902C177.545 61.7588 178.427 61.9423 179.393 61.7408C180.359 61.5392 181.108 61.0152 181.639 60.1688C182.171 59.3223 182.347 58.4684 182.167 57.6069C181.987 56.7455 181.511 56.0277 180.737 55.4536C179.958 54.8535 179.047 54.6623 178.002 54.8802C176.958 55.0981 176.199 55.6379 175.725 56.4996C175.277 57.3558 175.143 58.2146 175.323 59.076C175.497 59.9114 175.971 60.6161 176.745 61.1902Z" fill="#751398"/>
<path d="M209.501 46.5088C209.792 48.1092 209.602 49.3769 208.931 50.3117C208.282 51.2156 207.472 51.7556 206.502 51.9319L197.174 53.6258C197.308 54.3604 197.852 54.8984 198.809 55.2397C199.765 55.5809 200.676 55.673 201.542 55.5157C203.064 55.2394 204.229 54.8652 205.038 54.3931L205.442 54.157C206.019 53.7541 206.518 53.5145 206.938 53.4382C207.777 53.2858 208.606 53.7451 209.424 54.8162C209.894 55.4626 210.174 56.0351 210.264 56.5337C210.688 58.8688 208.106 60.5438 202.518 61.5587C200.576 61.9113 198.785 61.8978 197.144 61.5182C195.524 61.1076 194.195 60.4276 193.155 59.4781C191.116 57.653 189.859 55.4286 189.382 52.8048C188.782 49.4989 189.365 46.669 191.133 44.3153C192.923 41.9305 195.418 40.4475 198.619 39.8662C202.266 39.2039 205.176 40.0036 207.348 42.2651C208.488 43.4675 209.205 44.882 209.501 46.5088ZM201.404 49.1581C202.401 48.9771 202.823 48.4667 202.671 47.6271C202.561 47.0237 202.237 46.5811 201.698 46.2996C201.185 46.0133 200.496 45.9487 199.63 46.106C198.79 46.2584 198.015 46.7651 197.304 47.626C196.588 48.4606 196.302 49.2715 196.445 50.0586L201.404 49.1581Z" fill="#751398"/>
<path d="M217.892 40.4162C218.851 38.3582 220.201 37.199 221.942 36.9386C224.632 36.5361 226.808 37.3835 228.47 39.4806C228.701 39.0416 228.982 38.5815 229.315 38.1004C229.67 37.5889 230.258 37.0155 231.08 36.3803C231.897 35.7186 232.781 35.3168 233.73 35.1748C235.84 34.8591 237.73 35.4123 239.398 36.8343C241.063 38.23 242.176 40.8003 242.736 44.5453L243.772 51.4682C243.863 52.0748 243.905 52.5403 243.9 52.8647C243.917 53.1587 243.85 53.5193 243.698 53.9465C243.462 54.7099 242.499 55.2178 240.812 55.4704C239.15 55.7189 238.079 55.5016 237.6 54.8184C237.356 54.4505 237.186 54.1254 237.09 53.8432C237.016 53.5306 236.934 53.0711 236.843 52.4645L235.807 45.5416C235.464 43.2471 234.475 42.2222 232.84 42.4668C231.917 42.605 231.329 43.0029 231.077 43.6608C230.851 44.3148 230.821 45.1956 230.987 46.3032L232.023 53.2262C232.117 53.8591 232.16 54.3246 232.151 54.6226C232.168 54.9166 232.1 55.2773 231.949 55.7044C231.686 56.4717 230.711 56.9817 229.023 57.2342C227.361 57.4828 226.291 57.2655 225.811 56.5823C225.567 56.2143 225.397 55.8892 225.301 55.607C225.227 55.2945 225.145 54.8349 225.054 54.2283L224.019 47.3054C223.675 45.0109 222.686 43.986 221.051 44.2307C219.468 44.4675 218.849 45.7331 219.192 48.0275L220.24 55.0296C220.331 55.6362 220.373 56.1016 220.368 56.426C220.385 56.7201 220.318 57.0807 220.166 57.5078C219.873 58.2527 218.896 58.7495 217.234 58.9981C215.573 59.2467 214.504 59.0425 214.028 58.3857C213.784 58.0177 213.614 57.6926 213.518 57.4104C213.448 57.1243 213.366 56.6647 213.271 56.0318L211.188 42.1068C211.097 41.5002 211.043 41.0499 211.026 40.7558C211.032 40.4314 211.112 40.0689 211.268 39.6681C211.557 38.8968 212.44 38.4007 213.917 38.1797C215.394 37.9587 216.392 38.0521 216.911 38.4597C217.431 38.8673 217.757 39.5195 217.892 40.4162Z" fill="#751398"/>
<path d="M273.13 32.6588C274.616 33.2892 275.422 34.0668 275.549 34.9915C275.622 35.5198 275.457 36.2826 275.056 37.2798L268.783 52.4737C268.581 52.9591 268.214 53.4266 267.684 53.8762C267.15 54.2994 266.592 54.5509 266.011 54.6307C265.456 54.7068 264.896 54.6491 264.332 54.4574C263.79 54.2357 263.393 53.994 263.142 53.7324L262.726 53.3454L252.547 40.3689C251.899 39.5695 251.537 38.8925 251.461 38.3377C251.33 37.3866 251.895 36.4073 253.157 35.3998C254.081 34.6808 254.834 34.2814 255.415 34.2016C255.996 34.1219 256.471 34.2452 256.838 34.5715C257.229 34.8678 257.658 35.3473 258.126 36.0098L264.688 45.2838L268.509 34.5849C268.73 34.0431 268.893 33.6574 268.996 33.428C269.122 33.1684 269.329 32.9112 269.617 32.6564C269.901 32.3751 270.307 32.1982 270.836 32.1257C271.364 32.0532 272.129 32.2309 273.13 32.6588Z" fill="#751398"/>
<path d="M276.047 37.3761C275.977 36.7668 275.938 36.315 275.931 36.0205C275.947 35.6965 276.025 35.3251 276.165 34.9064C276.456 34.1748 277.449 33.7112 279.145 33.5156C280.416 33.3689 281.343 33.4901 281.925 33.8793C282.418 34.1983 282.722 34.7403 282.837 35.5055C282.894 35.7673 282.952 36.1499 283.01 36.6533L284.615 50.561C284.685 51.1703 284.712 51.6369 284.696 51.9609C284.703 52.2554 284.623 52.6135 284.457 53.0353C284.192 53.7638 283.212 54.2259 281.517 54.4215C279.848 54.6141 278.787 54.3741 278.333 53.7017C278.102 53.3257 277.943 52.9951 277.856 52.7098C277.796 52.4214 277.73 51.9594 277.656 51.3236L276.047 37.3761ZM281.716 29.273C281.573 29.6653 281.259 29.9699 280.774 30.1869C280.289 30.4039 279.623 30.5614 278.775 30.6592C277.954 30.7539 277.282 30.7509 276.761 30.65C276.239 30.5491 275.849 30.3122 275.592 29.9393C275.36 29.5634 275.201 29.2327 275.115 28.9474C275.052 28.6326 274.985 28.1705 274.914 27.5612C274.844 26.952 274.805 26.5001 274.798 26.2056C274.815 25.8816 274.894 25.5235 275.037 25.1312C275.325 24.3732 276.317 23.8963 278.012 23.7007C279.681 23.5082 280.729 23.7496 281.156 24.4251C281.414 24.7981 281.574 25.1419 281.638 25.4568C281.724 25.7421 281.803 26.1893 281.873 26.7986C281.943 27.4079 281.97 27.8746 281.954 28.1986C281.961 28.493 281.882 28.8512 281.716 29.273Z" fill="#751398"/>
<path d="M300.363 30.9671C303.029 30.9014 305.267 31.8731 307.077 33.8824C308.913 35.8644 309.867 38.3216 309.94 41.2541L310.113 48.2919C310.129 48.9051 310.113 49.3722 310.068 49.6935C310.049 49.9874 309.95 50.3232 309.773 50.701C309.417 51.43 308.386 51.8156 306.68 51.8577C304.788 51.9044 303.682 51.4382 303.365 50.459C303.194 50.0098 303.097 49.332 303.075 48.4256L302.901 41.3877C302.874 40.2947 302.533 39.4495 301.878 38.8522C301.25 38.2541 300.403 37.9683 299.336 37.9946C298.296 38.0202 297.451 38.3612 296.801 39.0174C296.177 39.673 295.877 40.5207 295.903 41.5604L296.078 48.6382C296.093 49.2513 296.078 49.7185 296.032 50.0397C296.013 50.3336 295.901 50.6698 295.697 51.0483C295.368 51.7767 294.351 52.1619 292.645 52.204C290.965 52.2454 289.93 51.9108 289.539 51.2003C289.342 50.805 289.214 50.4614 289.153 50.1694C289.119 49.8502 289.094 49.384 289.079 48.7709L288.73 34.6152C288.715 34.0287 288.718 33.5885 288.737 33.2946C288.782 32.9734 288.907 32.6235 289.111 32.245C289.468 31.5694 290.486 31.2108 292.166 31.1694C293.792 31.1293 294.799 31.4112 295.187 32.0151C295.465 32.4617 295.612 33.0049 295.628 33.6447C295.73 33.4555 295.963 33.183 296.328 32.8272C296.692 32.4714 297.045 32.1827 297.387 31.9608C298.278 31.3253 299.27 30.9941 300.363 30.9671Z" fill="#751398"/>
<path d="M328.252 23.5775C328.502 23.199 328.886 22.9536 329.405 22.8412C329.925 22.7289 330.596 22.711 331.419 22.7876C332.269 22.8667 332.938 23.0094 333.428 23.2157C333.918 23.4219 334.237 23.7328 334.386 24.1484C334.561 24.5665 334.647 24.9361 334.644 25.2571C334.67 25.5542 334.654 26.008 334.598 26.6187L332.384 50.3959C332.328 51.0066 332.258 51.4688 332.175 51.7825C332.121 52.0721 331.971 52.3929 331.724 52.7448C331.259 53.4246 330.097 53.6781 328.238 53.505C326.406 53.3345 325.445 52.5888 325.353 51.268C324.119 52.4387 322.507 52.9314 320.515 52.746C318.126 52.5236 316.045 51.2854 314.273 49.0315C312.503 46.751 311.747 44.23 312.004 41.4686C312.264 38.6807 313.473 36.3294 315.633 34.4146C317.82 32.5024 320.095 31.6563 322.458 31.8762C324.423 32.0591 325.888 32.865 326.853 34.294L327.631 25.9301C327.688 25.3194 327.744 24.8693 327.797 24.5797C327.88 24.266 328.032 23.9319 328.252 23.5775ZM319.787 44.6035C320.411 45.3846 321.214 45.8209 322.196 45.9124C323.178 46.0038 324.022 45.7207 324.726 45.0632C325.456 44.408 325.861 43.6557 325.94 42.806C326.022 41.9298 325.778 41.0903 325.21 40.2875C324.669 39.4872 323.867 39.0376 322.805 38.9388C321.743 38.8399 320.859 39.1326 320.152 39.8167C319.448 40.4743 319.055 41.2412 318.974 42.1174C318.892 42.9936 319.163 43.8223 319.787 44.6035Z" fill="#751398"/>
<path d="M337.146 45.383C337.017 42.1856 338.03 39.5026 340.184 37.3341C342.339 35.1656 344.855 34.0234 347.732 33.9074C350.61 33.7915 353.197 34.7281 355.492 36.7173C357.786 38.6798 358.998 41.2598 359.126 44.4572C359.216 46.6687 358.722 48.6636 357.646 50.4417C356.569 52.1931 355.221 53.5151 353.603 54.4077C352.009 55.2725 350.334 55.7404 348.575 55.8113C346.816 55.8821 345.094 55.5245 343.408 54.7384C341.72 53.9257 340.27 52.7031 339.056 51.0707C337.869 49.4105 337.232 47.5146 337.146 45.383ZM345.615 47.924C346.493 48.5292 347.372 48.814 348.252 48.7786C349.131 48.7431 349.997 48.3746 350.849 47.6731C351.702 46.9715 352.102 45.9679 352.049 44.6623C351.996 43.3567 351.544 42.4008 350.692 41.7946C349.841 41.1884 348.935 40.9047 347.976 40.9433C347.017 40.982 346.138 41.351 345.338 42.0504C344.539 42.7498 344.166 43.7523 344.219 45.0579C344.27 46.3369 344.736 47.2923 345.615 47.924Z" fill="#751398"/>
<path d="M373.317 54.3625C373.598 55.6093 373.959 56.5727 374.401 57.2528C374.864 57.964 375.345 58.3664 375.843 58.4601C376.341 58.5537 376.692 58.6334 376.897 58.699C377.128 58.7696 377.359 58.9081 377.592 59.1147C377.851 59.3262 377.998 59.6252 378.034 60.0118C378.096 60.4034 378.07 60.9005 377.957 61.5033C377.843 62.106 377.689 62.5654 377.494 62.8815C377.32 63.2287 377.074 63.4538 376.756 63.5568C376.271 63.6826 375.662 63.6766 374.928 63.5385C373.146 63.2033 371.653 62.2712 370.448 60.7421C369.264 59.2442 368.438 57.4336 367.969 55.3103C367.025 50.954 366.987 46.4696 367.854 41.8572C368.717 37.271 370.338 33.1258 372.717 29.4218C373.94 27.5353 375.39 26.0987 377.068 25.1119C378.751 24.0989 380.523 23.7674 382.384 24.1174C383.17 24.2652 383.716 24.463 384.023 24.7105C384.509 25.1547 384.641 25.9665 384.419 27.1458C384.188 28.3775 383.814 29.067 383.298 29.2141C382.891 29.3547 382.334 29.3585 381.627 29.2254L381.391 29.181C380.369 28.9888 379.101 29.9578 377.588 32.0881C376.878 33.1214 376.168 34.5887 375.457 36.4902C374.778 38.3704 374.212 40.516 373.758 42.927C373.305 45.3381 373.053 47.5428 373.002 49.5413C372.952 51.5398 373.057 53.1469 373.317 54.3625Z" fill="#751398"/>
<path d="M394.709 39.0933C395.176 37.6656 396.361 37.1535 398.265 37.557C399.283 37.7726 400.023 38.0112 400.485 38.2727C400.948 38.5343 401.229 38.88 401.328 39.31C401.454 39.7456 401.497 40.1226 401.457 40.4412C401.448 40.7392 401.38 41.1882 401.253 41.7883L398.351 55.4842C398.224 56.0842 398.101 56.5352 397.982 56.8372C397.895 57.1186 397.719 57.4356 397.454 57.7882C396.945 58.3891 395.973 58.5375 394.538 58.2335C393.129 57.935 392.213 57.5637 391.789 57.1195C391.397 56.6548 391.234 56.075 391.299 55.3801C390.041 56.5582 388.277 56.9068 386.008 56.4259C383.764 55.9505 381.895 54.4778 380.402 52.0079C378.908 49.5379 378.448 46.9464 379.023 44.2333C379.604 41.4941 381.075 39.3116 383.436 37.6859C385.83 36.0395 388.187 35.4624 390.509 35.9544C391.396 36.1423 392.171 36.4702 392.836 36.938C393.5 37.4058 393.945 37.8136 394.171 38.1614C394.403 38.4831 394.582 38.7937 394.709 39.0933ZM385.863 45.7235C385.68 46.5844 385.854 47.4388 386.383 48.2869C386.917 49.1089 387.667 49.6222 388.632 49.8267C389.598 50.0312 390.468 49.8477 391.243 49.276C392.045 48.7098 392.534 48.0093 392.711 47.1745C392.893 46.3136 392.749 45.4516 392.278 44.5885C391.832 43.7309 391.088 43.1916 390.044 42.9705C389.027 42.7549 388.115 42.9432 387.308 43.5355C386.527 44.1332 386.045 44.8626 385.863 45.7235Z" fill="#751398"/>
<path d="M396.969 63.1016C397.291 63.0132 397.559 62.9806 397.773 63.0036C398.012 63.0327 398.379 63.1055 398.872 63.2218C399.365 63.3382 399.955 63.1622 400.641 62.6938C401.346 62.2575 402.08 61.5266 402.843 60.5009C404.539 58.1887 405.954 54.6318 407.087 49.8303C407.644 47.4684 407.98 45.2874 408.096 43.2872C408.244 41.2672 408.203 39.641 407.973 38.4086C407.454 35.8476 406.688 34.4477 405.676 34.2089L405.442 34.1538C404.742 33.9885 404.254 33.7912 403.979 33.562C403.527 33.1541 403.436 32.3791 403.706 31.2371C403.981 30.0692 404.36 29.3914 404.843 29.2039C405.332 28.9904 405.991 28.9817 406.822 29.1776C408.665 29.6124 410.15 30.634 411.277 32.2426C412.411 33.8251 413.154 35.7266 413.507 37.947C414.179 42.2976 413.979 46.7439 412.908 51.2859C411.83 55.8538 409.976 59.9372 407.346 63.5361C406.057 65.2867 404.554 66.6036 402.839 67.4866C401.143 68.4018 399.413 68.6512 397.648 68.2348C396.325 67.9225 395.632 67.3754 395.57 66.5936C395.519 66.2256 395.565 65.7431 395.706 65.1462C395.846 64.5492 396.012 64.0813 396.201 63.7424C396.417 63.4097 396.672 63.1961 396.969 63.1016Z" fill="#751398"/>
<path d="M415.622 57.4118C416.011 56.9597 416.486 56.7083 417.049 56.6575C417.638 56.6133 418.488 56.7311 419.6 57.0111C420.738 57.2976 421.491 57.7484 421.858 58.3635C422.252 58.985 422.315 59.8259 422.048 60.8862L421.892 61.5068C421.735 62.1274 421.592 62.5864 421.462 62.8837C421.365 63.1616 421.161 63.4814 420.85 63.8431C420.247 64.4888 419.157 64.6131 417.58 64.2159C416.028 63.8252 415.055 63.319 414.662 62.6975C414.301 62.0566 414.303 61.012 414.667 59.5639C414.921 58.5554 415.239 57.838 415.622 57.4118ZM421.962 54.1823C421.438 54.1879 420.763 54.0865 419.935 53.8781C419.108 53.6698 418.465 53.4391 418.006 53.1861C417.547 52.933 417.257 52.6124 417.134 52.2241C417.038 51.8424 416.996 51.5157 417.01 51.2441C417.049 50.979 417.137 50.5749 417.274 50.0318L420.37 37.7357C420.507 37.1926 420.621 36.7951 420.712 36.543C420.835 36.2716 421.043 35.9938 421.334 35.7097C421.626 35.4256 422.033 35.2808 422.557 35.2752C423.088 35.2438 423.767 35.3323 424.594 35.5407C425.422 35.749 426.061 35.9927 426.514 36.2715C426.972 36.5246 427.247 36.8549 427.337 37.2625C427.459 37.6507 427.497 37.9904 427.451 38.2813C427.438 38.5529 427.363 38.9603 427.226 39.5033L424.13 51.7995C423.993 52.3425 423.866 52.7368 423.749 52.9824C423.658 53.2345 423.467 53.5026 423.176 53.7866C422.891 54.0449 422.486 54.1768 421.962 54.1823Z" fill="#751398"/>
</svg>
