<svg width="436" height="126" viewBox="0 0 436 126" fill="none" xmlns="http://www.w3.org/2000/svg">
<path d="M36.0939 50.6066L35.2323 45.5107L27.6971 44.7519L26.3565 49.6259L18.556 48.8403L28.5873 20.6266L28.0945 18.4073L39.0524 19.5109L45.8313 51.5872L36.0939 50.6066ZM32.259 28.0412L29.1475 39.4335L34.2948 39.9519L32.259 28.0412Z" fill="white"/>
<path d="M46.8465 51.6062L48.7064 20.4082L57.7632 21.2223L55.9034 52.4203L46.8465 51.6062Z" fill="white"/>
<path d="M69.7907 53.5568L61.3368 52.8919L62.8341 24.1843L61.662 21.5786L71.4452 22.348L75.8089 32.8523L79.9613 43.3132L79.2768 31.3602L79.713 22.9982L88.1935 23.6652L86.5655 54.8761L78.4572 54.2384L72.7732 41.4109L69.2681 33.3807L70.3032 43.7301L69.7907 53.5568Z" fill="white"/>
<path d="M99.6062 51.2972C100.954 51.384 102.019 50.6155 102.8 48.9916C103.599 47.3688 104.08 44.6392 104.244 40.8027L104.359 38.1118C104.479 35.3055 104.234 33.1169 103.625 31.546C103.016 29.9751 102.091 29.1496 100.849 29.0696L98.8531 28.9411L97.903 51.1875L99.6062 51.2972ZM100.237 55.9061C99.5979 55.865 98.6059 55.7655 97.2606 55.6076C95.9323 55.4687 94.5585 55.3535 93.1392 55.2621L88.908 54.9896L90.2416 23.7648L94.4728 24.0372C95.6622 24.096 96.9592 24.135 98.3638 24.1542C99.7683 24.1734 100.87 24.2087 101.668 24.2601C106.192 24.5515 109.376 26.0299 111.219 28.6955C113.079 31.3622 113.906 35.1289 113.698 39.9956C113.628 41.6474 113.445 43.2119 113.151 44.689C112.874 46.1673 112.402 47.6419 111.734 49.1127C111.067 50.5659 110.249 51.8045 109.281 52.8285C108.312 53.8526 107.05 54.6529 105.496 55.2296C103.941 55.8063 102.188 56.0318 100.237 55.9061Z" fill="white"/>
<path d="M130.185 57.3756L129.154 52.3311L121.59 51.9484L120.411 56.8811L112.581 56.4849L121.68 27.8189L121.113 25.6278L132.112 26.1843L139.959 57.8701L130.185 57.3756ZM125.599 35.0385L122.865 46.5667L128.032 46.8281L125.599 35.0385Z" fill="white"/>
<path d="M162.314 58.6042L153.838 58.3543L154.4 29.6132L153.143 27.0685L162.952 27.3577L167.659 37.6337L172.152 47.8767L171.078 35.9738L171.242 27.6021L179.745 27.8528L179.134 59.1002L171.004 58.8605L164.902 46.3291L161.134 38.4817L162.507 48.7661L162.314 58.6042Z" fill="white"/>
<path d="M186.364 24.6434L182.711 24.5876L182.728 22.9344C182.741 21.6011 182.913 20.4658 183.242 19.5286C183.59 18.5738 184.05 17.8607 184.624 17.3894C185.216 16.9007 185.833 16.5545 186.475 16.3509C187.117 16.1474 187.82 16.0515 188.584 16.0631C189.437 16.0762 190.289 16.2492 191.139 16.5822C191.989 16.8975 192.697 17.2461 193.262 17.6281C193.827 18.0101 194.419 18.3658 195.038 18.6953C195.657 19.0071 196.198 19.1664 196.66 19.1735C197.246 19.1825 197.684 18.9936 197.972 18.6068C198.279 18.2026 198.435 17.636 198.443 16.9072L198.45 16.2139L202.103 16.2697L202.086 17.8963C202.06 20.4561 201.571 22.2533 200.618 23.2877C199.666 24.3044 198.212 24.7978 196.256 24.7679C195.332 24.7538 193.87 24.2425 191.872 23.2341C189.873 22.2079 188.581 21.6903 187.994 21.6814C187.478 21.6735 187.076 21.8896 186.787 22.3297C186.516 22.77 186.377 23.3013 186.371 23.9235L186.364 24.6434ZM196.786 59.3396L195.637 54.3348L188.064 54.2191L187.001 59.1901L179.161 59.0703L187.589 30.1027L186.971 27.9331L197.983 28.1013L206.572 59.4891L196.786 59.3396ZM191.677 37.1792L189.213 48.7961L194.385 48.8752L191.677 37.1792Z" fill="white"/>
<path d="M216.499 47.3827C216.496 50.3338 216.717 52.3874 217.16 53.5436C217.621 54.6997 218.421 55.2785 219.559 55.28C220.394 55.2811 221.025 55.0774 221.452 54.6691C221.879 54.243 222.2 53.3812 222.415 52.0837C222.647 50.7684 222.764 48.8041 222.766 46.1908L222.772 39.7641C222.774 37.2219 222.527 35.3282 222.03 34.0832C221.533 32.8381 220.716 32.2148 219.578 32.2133C218.441 32.2119 217.64 32.8242 217.177 34.0502C216.731 35.2585 216.507 37.4716 216.504 40.6894L216.499 47.3827ZM218.995 60.0259C217.519 60.024 216.186 59.889 214.995 59.6208C213.822 59.3526 212.809 58.9779 211.956 58.4968C211.103 58.0157 210.357 57.4014 209.717 56.6539C209.096 55.9065 208.59 55.1058 208.199 54.252C207.827 53.3982 207.525 52.4022 207.295 51.2641C207.065 50.1083 206.906 48.9614 206.818 47.8235C206.73 46.6679 206.687 45.37 206.688 43.93C206.69 41.7967 206.798 39.9391 207.013 38.3571C207.246 36.7752 207.665 35.2913 208.27 33.9054C208.876 32.5017 209.677 31.365 210.673 30.4952C211.687 29.6254 212.986 28.9426 214.568 28.4469C216.169 27.9511 218.053 27.7047 220.222 27.7075C221.716 27.7094 223.058 27.8534 224.248 28.1394C225.439 28.4076 226.461 28.7822 227.314 29.2633C228.167 29.7444 228.904 30.3676 229.526 31.1328C230.165 31.8981 230.671 32.7165 231.044 33.5881C231.434 34.442 231.744 35.4468 231.975 36.6027C232.205 37.7585 232.364 38.9054 232.452 40.0433C232.54 41.1812 232.583 42.4701 232.582 43.9101C232.58 46.0435 232.463 47.9011 232.23 49.483C231.998 51.0649 231.579 52.5488 230.973 53.9347C230.367 55.3028 229.558 56.4218 228.544 57.2916C227.529 58.1436 226.222 58.8175 224.622 59.3132C223.039 59.7911 221.163 60.0287 218.995 60.0259Z" fill="white"/>
<path d="M252.219 59.1854L251.918 35.0006L245.679 35.1174L245.592 28.0512L267.081 27.6489L267.169 34.715L260.93 34.8319L261.23 59.0167L252.219 59.1854Z" fill="white"/>
<path d="M288.901 58.2309L270.003 58.8084L269.37 27.5615L287.868 26.9962L287.463 33.3045L278.315 33.3173L278.437 39.3427L285.634 39.1228L285.76 45.3615L278.553 45.0482L278.696 52.1401L288.766 51.5656L288.901 58.2309Z" fill="white"/>
<path d="M298.682 57.8267L290.664 58.1909L292.2 26.8392L304.694 26.2717L307.354 36.6405L308.579 41.8963L309.433 36.5727L311.194 25.9764L322.329 25.4707L325.561 56.6058L317.277 56.9821L315.365 38.6788L314.841 31.923L311.429 54.1249L304.476 54.4407L298.911 32.6466L298.955 39.4242L298.682 57.8267Z" fill="white"/>
<path d="M351.079 55.4642C349.252 55.5893 347.621 55.5229 346.186 55.2649C344.769 55.0057 343.594 54.6051 342.662 54.0633C341.748 53.5202 340.978 52.8247 340.352 51.9768C339.744 51.11 339.301 50.1872 339.026 49.2084C338.75 48.2297 338.585 47.1365 338.53 45.9289L337.557 24.5109L347.028 23.8622L347.946 44.0814C348.049 46.3368 348.35 47.875 348.85 48.6958C349.367 49.4977 350.077 49.8677 350.982 49.8057C351.479 49.7717 351.91 49.662 352.275 49.4767C352.639 49.2736 352.972 48.9569 353.272 48.5265C353.572 48.0784 353.784 47.4582 353.908 46.6659C354.049 45.8545 354.094 44.8806 354.043 43.744L353.12 23.4449L361.527 22.869L362.508 44.4468C362.562 45.6367 362.504 46.7184 362.335 47.692C362.183 48.6644 361.853 49.6223 361.344 50.5657C360.853 51.4901 360.177 52.2846 359.318 52.9491C358.475 53.5947 357.353 54.1437 355.95 54.5961C354.565 55.0473 352.941 55.3366 351.079 55.4642Z" fill="white"/>
<path d="M372.508 53.3079L364.51 53.9853L365.228 22.5718L377.69 21.5163L380.616 31.7818L381.977 36.9901L382.691 31.6329L384.174 20.9672L395.281 20.0265L399.319 51.0371L391.055 51.737L388.669 33.5074L387.971 26.7717L385.141 49.108L378.205 49.6954L372.081 28.1175L372.301 34.8937L372.508 53.3079Z" fill="white"/>
<path d="M415.059 49.3831L413.533 44.5277L405.998 45.2866L405.322 50.3637L397.521 51.1494L403.675 21.3057L402.894 19.2146L413.852 18.111L424.797 48.4024L415.059 49.3831ZM408.281 27.8866L406.723 39.7492L411.87 39.2308L408.281 27.8866Z" fill="white"/>
<path d="M23.5988 82.1351L23.3407 82.4004C23.1522 82.5575 22.8364 82.7537 22.3935 82.9888C21.9694 83.2083 21.4563 83.4264 20.8544 83.6433C20.2714 83.8445 19.497 83.9791 18.5313 84.047C17.5645 84.1327 16.5335 84.1127 15.4385 83.987C13.1248 83.7214 11.1723 83.113 9.58103 82.1618C7.99094 81.1928 6.77734 79.9185 5.94022 78.3388C5.12196 76.7434 4.57231 74.9912 4.29127 73.0821C4.01143 71.1553 3.95437 68.9591 4.1201 66.4936C4.29656 63.8684 4.65168 61.6301 5.18548 59.7788C5.72047 57.9097 6.50428 56.3106 7.53694 54.9812C8.58844 53.6362 9.96874 52.6953 11.6778 52.1586C13.3869 51.6219 15.4337 51.4904 17.818 51.7641C18.913 51.8897 19.9309 52.1049 20.8715 52.4094C21.8298 52.7161 22.5743 53.0249 23.1052 53.3361C23.6536 53.6493 24.1379 53.9909 24.558 54.3608C24.9958 54.7328 25.2634 54.987 25.3611 55.1233C25.4764 55.2617 25.5581 55.3693 25.6063 55.4464L24.7976 61.5203L20.7707 61.0581L19.6059 57.7338C19.2939 57.6086 19.032 57.5339 18.8201 57.5096C17.6367 57.3738 16.7087 57.5443 16.0359 58.0212C15.3643 58.4803 14.8076 59.48 14.3659 61.0201C13.9254 62.5426 13.6062 64.776 13.4083 67.7205C13.2903 69.4765 13.2931 71.023 13.4168 72.3599C13.5582 73.6988 13.764 74.7413 14.0342 75.4873C14.3057 76.2156 14.6478 76.8179 15.0608 77.2943C15.4737 77.7707 15.8526 78.0912 16.1975 78.2559C16.5436 78.4029 16.9197 78.4997 17.326 78.5463C18.2267 78.6497 19.1788 78.6517 20.1821 78.5524C21.1867 78.4353 22.0224 78.1826 22.6892 77.7944L23.5988 82.1351Z" fill="white"/>
<path d="M34.856 73.3426C34.6804 76.2885 34.7792 78.3607 35.1526 79.5592C35.5437 80.7596 36.3052 81.4173 37.4371 81.5326C38.2684 81.6172 38.9084 81.477 39.3572 81.1121C39.8071 80.7294 40.1768 79.9011 40.4662 78.6272C40.7745 77.3374 41.0063 75.3881 41.1619 72.7794L41.5443 66.3642C41.6956 63.8264 41.5607 61.9113 41.1395 60.6186C40.7184 59.3259 39.9418 58.622 38.8099 58.5068C37.678 58.3916 36.8456 58.9228 36.3127 60.1005C35.7986 61.2622 35.4458 63.4491 35.2543 66.6612L34.856 73.3426ZM36.5975 86.2141C35.1295 86.0647 33.811 85.7965 32.6419 85.4097C31.4905 85.0247 30.5046 84.5494 29.6842 83.9838C28.8638 83.4182 28.1575 82.7304 27.5652 81.9202C26.9906 81.1119 26.5342 80.262 26.1958 79.3705C25.8752 78.4809 25.6338 77.4565 25.4716 76.2973C25.3104 75.1204 25.2195 73.9596 25.1988 72.8148C25.1791 71.6523 25.2121 70.3523 25.2978 68.9149C25.4248 66.7853 25.6415 64.9417 25.9479 63.3838C26.272 61.8278 26.7759 60.3883 27.4598 59.0653C28.1447 57.7246 29.0083 56.6699 30.0506 55.9011C31.1106 55.1342 32.4424 54.5824 34.0461 54.2457C35.6675 53.9109 37.5571 53.8533 39.7148 54.0729C41.2005 54.2242 42.5273 54.5021 43.6954 54.9066C44.8645 55.2935 45.8593 55.7697 46.6796 56.3352C47.5 56.9008 48.197 57.5966 48.7705 58.4227C49.3617 59.2506 49.8171 60.1183 50.1367 61.0257C50.475 61.9171 50.7247 62.9513 50.8859 64.1282C51.047 65.3051 51.138 66.4659 51.1587 67.6107C51.1794 68.7555 51.1469 70.0466 51.0612 71.484C50.9343 73.6136 50.7087 75.4563 50.3846 77.0124C50.0606 78.5684 49.5566 80.0079 48.8727 81.3309C48.1899 82.6361 47.3185 83.6722 46.2586 84.4391C45.1997 85.1883 43.8595 85.7304 42.2381 86.0652C40.6355 86.3841 38.7553 86.4338 36.5975 86.2141Z" fill="white"/>
<path d="M58.7167 87.7181L50.2691 86.9783L51.7415 58.2693L50.5682 55.652L60.3441 56.5081L64.713 67.0562L68.8708 77.559L68.1769 65.5939L68.6058 57.2316L77.0801 57.9737L75.4793 89.186L67.3769 88.4765L61.6869 75.5923L58.1779 67.5272L59.2208 77.891L58.7167 87.7181Z" fill="white"/>
<path d="M81.1279 89.5402L82.1812 65.3765L75.9584 64.9133L76.2661 57.8534L97.7002 59.4487L97.3925 66.5086L91.1697 66.0455L90.1164 90.2092L81.1279 89.5402Z" fill="white"/>
<path d="M112.83 91.6574L111.813 86.6001L104.254 86.1336L103.062 91.0545L95.237 90.5716L104.406 61.9983L103.845 59.8003L114.837 60.4787L122.598 92.2603L112.83 91.6574ZM108.305 69.2633L105.541 80.7645L110.705 81.0832L108.305 69.2633Z" fill="white"/>
<path d="M153.037 93.5572L134.148 92.755L134.925 61.5113L153.415 62.2966L152.726 68.5653L143.594 67.9106L143.444 73.9355L150.637 74.241L150.482 80.479L143.302 79.6404L143.126 86.7315L153.203 86.8926L153.037 93.5572Z" fill="white"/>
<path d="M161.511 93.8004L153.488 93.5767L156.477 62.3967L168.979 62.7453L171.154 73.2893L172.133 78.625L173.232 73.3739L175.483 62.9266L186.626 63.2373L188.408 94.5504L180.118 94.3192L179.058 75.9105L178.849 69.1291L174.411 91.0391L167.453 90.8451L162.908 68.6846L162.638 75.4526L161.511 93.8004Z" fill="white"/>
<path d="M211.928 94.6464L203.501 94.6161L196.127 63.3362L205.007 63.3681L206.398 74.1464L208.483 84.6073L211.198 74.1637L211.897 71.3128L209.86 63.3855L218.58 63.4168L220.478 74.197L222.802 84.6587L224.291 74.2107L225.887 63.443L233.994 63.4721L227.048 94.7007L217.955 94.668L214.701 82.0963L211.928 94.6464Z" fill="white"/>
<path d="M238.964 94.1407L230.138 94.2488L229.914 62.9963L238.74 62.8882L238.829 75.2612L245.681 75.1772L245.593 62.8042L254.419 62.6961L254.643 93.9486L245.817 94.0568L245.725 81.3104L238.873 81.3944L238.964 94.1407Z" fill="white"/>
<path d="M256.385 94.2421L255.96 62.9917L265.051 62.7805L265.476 94.0309L256.385 94.2421Z" fill="white"/>
<path d="M279.351 94.1649C277.983 94.21 276.701 94.1277 275.506 93.9181C274.329 93.7257 273.336 93.4471 272.529 93.0824C271.722 92.7177 271.058 92.3661 270.535 92.0276C270.031 91.6885 269.607 91.3468 269.262 91.0024L269.803 84.5017C270.551 85.4553 271.545 86.2762 272.785 86.9646C274.024 87.6352 275.355 87.947 276.776 87.9002C278.198 87.8533 279.217 87.6686 279.833 87.3459C280.466 87.0227 280.776 86.4611 280.76 85.6613C280.744 84.8081 280.365 84.0914 279.625 83.511C278.903 82.9301 277.654 82.2421 275.878 81.4469C275.233 81.148 274.685 80.8815 274.236 80.6473C273.787 80.3953 273.183 79.9883 272.426 79.4264C271.686 78.846 271.078 78.2436 270.604 77.6189C270.129 76.9765 269.705 76.1545 269.33 75.1531C268.954 74.1339 268.755 73.0377 268.733 71.8646C268.61 65.5191 272.129 62.2284 279.29 61.9924C280.427 61.9549 281.496 62.0442 282.495 62.2603C283.513 62.458 284.308 62.6896 284.882 62.9553C285.456 63.2209 285.978 63.5417 286.448 63.9175C286.935 64.2749 287.242 64.5316 287.369 64.6875C287.496 64.8256 287.588 64.9382 287.643 65.0253L286.409 70.2149C285.701 69.4201 284.818 68.8445 283.762 68.488C282.724 68.1132 281.734 67.9412 280.792 67.9723C278.518 68.0472 277.394 68.7957 277.422 70.2176C277.429 70.5909 277.507 70.9263 277.655 71.2238C277.803 71.5212 278.039 71.7891 278.363 72.0274C278.688 72.2657 278.985 72.4694 279.255 72.6383C279.543 72.8067 279.929 73.0163 280.414 73.2671C280.917 73.4996 281.294 73.6917 281.546 73.8434C284.161 74.86 286.087 76.1037 287.325 77.5747C288.58 79.0452 289.228 80.8646 289.27 83.0331C289.338 86.5524 288.519 89.2651 286.814 91.171C285.126 93.0586 282.638 94.0565 279.351 94.1649Z" fill="white"/>
<path d="M311.066 90.0732L310.834 90.3772C310.661 90.5628 310.365 90.8074 309.946 91.1108C309.545 91.3957 309.055 91.6934 308.476 92.004C307.915 92.2961 307.157 92.5524 306.202 92.7731C305.249 93.0115 304.221 93.1554 303.12 93.2048C300.793 93.309 298.794 93.016 297.122 92.3258C295.45 91.6178 294.124 90.5474 293.144 89.1145C292.182 87.6631 291.471 86.0135 291.014 84.1657C290.556 82.3002 290.295 80.1324 290.23 77.6621C290.161 75.0319 290.306 72.7569 290.664 70.837C291.022 68.8994 291.653 67.1897 292.557 65.708C293.478 64.2078 294.763 63.056 296.414 62.2526C298.064 61.4491 300.088 60.9937 302.485 60.8863C303.587 60.837 304.619 60.8886 305.583 61.0411C306.565 61.1929 307.335 61.3808 307.892 61.6049C308.467 61.8283 308.98 62.09 309.433 62.39C309.903 62.6892 310.193 62.8986 310.303 63.0182C310.43 63.137 310.522 63.2308 310.577 63.2995L310.338 69.4486L306.289 69.63L304.82 66.5198C304.498 66.4453 304.231 66.4128 304.018 66.4223C302.828 66.4756 301.92 66.7921 301.295 67.3716C300.67 67.9334 300.209 69.0127 299.913 70.6095C299.617 72.1885 299.507 74.4531 299.585 77.4032C299.631 79.1626 299.778 80.6951 300.025 82.0006C300.291 83.3054 300.593 84.306 300.931 85.0026C301.269 85.6814 301.665 86.2241 302.121 86.6307C302.576 87.0373 302.983 87.2949 303.341 87.4034C303.699 87.4941 304.082 87.5303 304.491 87.512C305.397 87.4714 306.344 87.3222 307.333 87.0644C308.321 86.7888 309.129 86.4057 309.756 85.915L311.066 90.0732Z" fill="white"/>
<path d="M321.389 79.5907C321.488 82.5401 321.779 84.5795 322.262 85.7088C322.763 86.8371 323.581 87.3684 324.717 87.3029C325.551 87.2548 326.174 87.0141 326.586 86.5809C326.998 86.1299 327.288 85.2497 327.457 83.9404C327.644 82.6122 327.693 80.6423 327.604 78.0304L327.387 71.6074C327.301 69.0667 326.989 67.1887 326.45 65.9737C325.911 64.7586 325.074 64.1839 323.938 64.2494C322.802 64.3149 322.024 64.974 321.604 66.2266C321.201 67.4604 321.054 69.6853 321.163 72.9012L321.389 79.5907ZM324.318 92.0791C322.845 92.1641 321.509 92.1077 320.311 91.9098C319.131 91.7108 318.106 91.3961 317.238 90.9655C316.37 90.5349 315.604 89.965 314.94 89.2556C314.293 88.5452 313.761 87.7748 313.341 86.9445C312.94 86.1132 312.604 85.1356 312.335 84.0118C312.066 82.8702 311.867 81.7334 311.74 80.6014C311.612 79.4516 311.524 78.1571 311.475 76.718C311.403 74.5858 311.447 72.723 311.607 71.1294C311.784 69.5347 312.151 68.0271 312.707 66.6064C313.263 65.1679 314.024 63.9847 314.988 63.0568C315.97 62.1278 317.243 61.369 318.806 60.7803C320.386 60.1907 322.259 59.8334 324.424 59.7084C325.915 59.6224 327.26 59.6872 328.459 59.9029C329.657 60.1008 330.69 60.415 331.558 60.8456C332.426 61.2762 333.184 61.8556 333.831 62.5837C334.496 63.3109 335.029 64.099 335.431 64.9481C335.851 65.7784 336.195 66.7644 336.465 67.906C336.735 69.0475 336.933 70.1843 337.06 71.3163C337.187 72.4484 337.275 73.7339 337.324 75.1731C337.396 77.3052 337.343 79.1686 337.166 80.7632C336.989 82.3579 336.622 83.8655 336.065 85.2862C335.508 86.6892 334.738 87.8551 333.756 88.7841C332.773 89.6953 331.491 90.4458 329.911 91.0354C328.348 91.6063 326.483 91.9542 324.318 92.0791Z" fill="white"/>
<path d="M346.754 90.0618L337.949 90.6779L336.669 59.4508L354.226 58.2222L354.505 65.0165L345.731 65.096L346.028 72.3433L353.21 71.8407L353.481 78.4485L346.277 78.4182L346.754 90.0618Z" fill="white"/>
<path d="M365.807 88.6058L357.009 89.3147L355.535 58.0961L373.079 56.6826L373.399 63.4751L364.629 63.6469L364.971 70.8922L372.148 70.3139L372.459 76.9199L365.257 76.9655L365.807 88.6058Z" fill="white"/>
<path d="M394.886 86.0292L376.058 87.754L374.384 56.5455L392.813 54.8573L392.619 61.1902L383.496 61.7583L383.819 67.7763L390.989 67.1195L391.324 73.3506L384.125 73.4748L384.505 80.5579L394.529 79.3721L394.886 86.0292Z" fill="white"/>
<path d="M415.428 83.9035L396.621 85.842L394.738 54.6455L413.147 52.748L412.996 59.0846L403.881 59.7562L404.245 65.7719L411.407 65.0337L411.783 71.2624L404.588 71.4682L405.016 78.5487L415.027 77.249L415.428 83.9035Z" fill="white"/>
<path d="M426 83.1947L421.36 79.3033L421.298 78.372L425.349 73.5099L426.356 73.3943L431.179 77.2379L431.242 78.1691L427.007 83.0792L426 83.1947ZM427.87 70.1103L423.338 70.6037C422.902 69.9388 422.643 68.9943 422.561 67.7704C422.518 67.1319 422.891 65.668 423.68 63.3788C424.488 61.0876 424.87 59.6316 424.828 59.0108C424.763 58.0352 424.458 57.3462 423.915 56.9438C423.39 56.5394 422.703 56.3859 421.855 56.4832C421.22 56.5561 420.624 56.83 420.068 57.3049C419.512 57.762 419.158 58.3299 419.008 59.0085L415.259 57.2403C416.635 53.6147 419.539 51.5475 423.972 51.0387C430.225 50.3211 433.519 52.4633 433.855 57.4654C433.906 58.2281 433.723 59.0803 433.306 60.0219C432.889 60.9635 432.362 61.8641 431.726 62.7236C431.089 63.5831 430.451 64.416 429.811 65.2223C429.189 66.0266 428.663 66.802 428.232 67.5485C427.801 68.2773 427.6 68.8722 427.631 69.3334C427.642 69.4931 427.679 69.6408 427.741 69.7766L427.87 70.1103Z" fill="white"/>
</svg>
